<svg width="60" height="60" viewBox="0 0 60 60" fill="none" xmlns="http://www.w3.org/2000/svg">
<path d="M43.6398 0H10.5653C6.52972 0 3.24414 3.28177 3.24414 7.31739V52.6827C3.24414 56.7182 6.52972 60 10.5653 60H49.4091C53.4428 60 56.7557 56.7182 56.7557 52.6827V13.3932L43.6398 0ZM49.4091 54.8275H10.5653C9.40727 54.8275 8.51113 53.8406 8.51113 52.6827V7.31739C8.51113 6.15944 9.40739 5.17267 10.5653 5.17267H41.1445V11.0587C41.1445 13.6401 43.1986 15.7411 45.78 15.7665L51.4886 15.8252V52.6826C51.4889 53.8406 50.5664 54.8275 49.4091 54.8275Z" fill="#5FD361"/>
<path d="M32.8581 11.9096C31.4794 11.7072 30.1039 12.1236 29.0509 13.0356C27.999 13.9486 27.4143 15.2686 27.4143 16.6596V33.1756C26.285 32.6651 25.0293 32.38 23.7169 32.38C18.8081 32.38 14.8222 36.3583 14.8222 41.2659C14.8222 46.1734 18.796 50.1524 23.7029 50.1524C28.6112 50.1524 32.5869 46.1736 32.5869 41.2659C32.5869 41.1849 32.5796 41.1039 32.578 41.0226C32.5869 40.9327 32.5857 40.8418 32.5857 40.7486V18.8012C32.5857 18.3856 32.7969 17.9962 33.1404 17.7627C33.4846 17.5284 33.9239 17.48 34.3118 17.632C37.4997 18.8894 37.6726 21.4682 37.7366 22.4169C37.8322 23.8544 39.0861 24.9459 40.5127 24.8464C41.9501 24.7508 43.0386 23.5078 42.9437 22.0703C42.5706 16.4789 38.8943 12.7766 32.8581 11.9096Z" fill="#5FD361"/>
</svg>
