<svg width="686" height="686" viewBox="0 0 686 686" fill="none" xmlns="http://www.w3.org/2000/svg">
<path d="M469.185 8.5C584.052 8.50001 677.5 101.948 677.5 216.812C677.5 331.675 584.051 425.121 469.185 425.121H440.206C433.572 425.121 428.191 419.743 428.191 413.105C428.191 406.468 433.569 401.09 440.206 401.09H469.185C570.798 401.09 653.469 318.422 653.469 216.812C653.469 115.201 570.794 32.5322 469.182 32.5322C367.57 32.5324 284.9 115.201 284.9 216.812V262.188C284.9 268.825 279.522 274.203 272.884 274.203C266.246 274.203 260.869 268.825 260.869 262.188V216.812L260.872 215.466C261.599 101.217 354.767 8.5 469.185 8.5Z" fill="black" stroke="black" stroke-width="3"/>
<path d="M244.842 345.005C251.48 345.005 256.857 350.383 256.857 357.021V358.423C256.857 365.061 251.477 370.439 244.842 370.439C238.207 370.439 232.826 365.061 232.826 358.423V357.021L232.83 356.71C232.995 350.216 238.308 345.005 244.842 345.005Z" fill="black" stroke="black" stroke-width="3"/>
<path d="M393.979 106.648C400.617 106.648 405.995 112.026 405.995 118.664V184.327C412.976 180.321 421.061 178.027 429.672 178.027C455.977 178.027 477.378 199.427 477.378 225.732L477.374 226.348C477.041 252.373 455.771 273.438 429.67 273.438C403.363 273.438 381.963 252.039 381.963 225.732V130.679H353.189C346.551 130.679 341.174 125.3 341.174 118.664C341.174 112.027 346.551 106.648 353.189 106.648H393.979ZM429.669 202.058C416.614 202.058 405.992 212.681 405.992 225.732C405.992 238.785 416.615 249.408 429.669 249.408C442.722 249.408 453.343 238.787 453.343 225.732L453.336 225.122C453.011 212.35 442.519 202.058 429.669 202.058Z" fill="black" stroke="black" stroke-width="3"/>
<path d="M513.801 148.711C520.436 148.712 525.814 154.09 525.814 160.726V226.39C532.796 222.384 540.879 220.09 549.49 220.09C575.797 220.09 597.197 241.49 597.197 267.795C597.197 294.102 575.798 315.501 549.49 315.501C523.185 315.501 501.784 294.102 501.784 267.795V172.743H473.011C466.374 172.743 460.995 167.365 460.995 160.727C460.995 154.089 466.374 148.711 473.011 148.711H513.801ZM549.49 244.123C536.435 244.123 525.815 254.744 525.814 267.796C525.814 280.85 536.435 291.472 549.49 291.472C562.545 291.472 573.167 280.849 573.167 267.796C573.167 254.745 562.544 244.123 549.49 244.123Z" fill="black" stroke="black" stroke-width="3"/>
<path d="M237.832 288.921C267.077 288.921 292.464 305.717 304.864 330.162L372.842 318.832L372.843 318.831L373.41 318.745C379.277 317.934 385.186 319.643 389.715 323.481H389.714C394.39 327.441 397.071 333.229 397.071 339.356L397.065 339.876C396.936 345.239 394.782 350.266 390.979 354.073H390.978L349.257 395.792L385.142 413.735L385.824 414.091C392.78 417.879 397.074 425.075 397.074 433.042C397.074 443.636 389.482 452.594 379.033 454.333L379.034 454.334L312.944 465.35V504.243C312.944 560.007 277.972 607.751 228.815 626.707V653.468H244.842C251.479 653.468 256.857 658.846 256.857 665.484C256.857 672.122 251.478 677.499 244.842 677.499H216.799C210.161 677.499 204.783 672.121 204.783 665.484V633.41C197.302 634.74 189.601 635.436 181.746 635.436C173.891 635.436 166.19 634.74 158.71 633.41V653.468H174.732C181.369 653.468 186.748 658.846 186.748 665.484C186.748 672.122 181.368 677.499 174.732 677.499H146.688C140.051 677.498 134.674 672.121 134.674 665.484V626.706C85.5182 607.749 50.544 560.007 50.5438 504.242V483.21C50.5438 477.118 55.1055 471.99 61.1561 471.278L162.716 459.33V433.414L52.7703 384.616L47.4949 393.517C34.677 415.156 29.8641 440.716 33.9432 465.488L34.2479 467.246C35.8408 476.018 38.517 484.561 42.2117 492.669L42.3367 492.954C44.8785 498.93 42.2052 505.877 36.2596 508.586H36.2586C30.3159 511.293 23.3174 508.756 20.4744 502.915L20.3426 502.633C15.6734 492.386 12.3347 481.568 10.4129 470.467L10.2322 469.392C5.23719 439.054 11.1302 407.761 26.8211 381.27L26.8221 381.269L37.5428 363.174L37.8436 362.692C41.0567 357.807 47.3602 355.926 52.7557 358.317H52.7567L162.72 407.123V364.032C162.72 322.616 196.414 288.921 237.832 288.921ZM237.832 312.955C209.667 312.955 186.752 335.869 186.752 364.034V425.373H186.751C186.754 425.529 186.754 425.689 186.751 425.846H186.752V456.504L242.391 449.957C242.542 449.936 242.697 449.919 242.853 449.904L267.152 447.044L267.46 447.012C273.909 446.405 279.729 451.087 280.491 457.574L280.523 457.881C281.11 464.245 276.598 469.962 270.269 470.869L269.962 470.909L254.533 472.724C242.936 534.148 189.134 579.354 125.66 579.354H125.657L125.026 579.352H125.018C118.382 579.302 113.043 573.884 113.091 567.247L113.096 566.938C113.306 560.476 118.614 555.32 125.105 555.32H125.188L125.66 555.321C174.906 555.32 217.019 522.018 229.237 475.7L176.264 481.932L176.263 481.931C176.191 481.941 176.118 481.95 176.04 481.958L176.041 481.959L74.5799 493.895V504.243C74.58 563.331 122.657 611.406 181.746 611.406C240.835 611.406 288.912 563.331 288.912 504.243V364.034C288.912 335.869 265.997 312.955 237.832 312.955ZM312.18 353.307C312.683 356.812 312.943 360.393 312.943 364.033V440.983L367.662 431.865L323.594 409.832C320.247 408.158 317.879 405.024 317.171 401.365L317.107 401.008C316.489 397.194 317.743 393.318 320.472 390.586L366.872 344.191L312.18 353.307Z" fill="black" stroke="black" stroke-width="3"/>
</svg>
