<svg width="900" height="900" viewBox="0 0 900 900" fill="none" xmlns="http://www.w3.org/2000/svg">
<g clip-path="url(#clip0_113_72)">
<path d="M356.212 279.475C356.212 132.973 474.973 14.2119 621.475 14.2119C767.976 14.2119 886.737 132.973 886.737 279.475C886.737 425.976 767.976 544.737 621.475 544.737H356.212V279.475Z" fill="#DCFFF9"/>
<path d="M886.737 279.475C886.737 425.976 767.976 544.737 621.475 544.737H562.737C709.239 544.737 828 425.976 828 279.475C828 142.901 724.785 30.4559 592.105 15.8396C601.752 14.7762 611.545 14.2119 621.473 14.2119C767.976 14.2102 886.737 132.973 886.737 279.475Z" fill="#C3FFF9"/>
<path d="M628.432 286.582C631.345 324.158 600.771 355.514 563.453 353.913C530.576 352.503 503.745 323.163 503.745 290.257V236.842C503.745 228.994 510.108 222.632 517.955 222.632C525.804 222.632 532.165 228.996 532.165 236.842V239.212C543.433 231.861 557.197 228.029 571.897 229.347C601.968 232.045 626.099 256.479 628.432 286.582ZM733.811 286.191C719.112 284.873 705.347 288.703 694.079 296.056V293.687C694.079 285.838 687.716 279.476 679.869 279.476C672.02 279.476 665.659 285.84 665.659 293.687V347.101C665.659 380.008 692.49 409.347 725.365 410.759C762.683 412.36 793.257 381.004 790.346 343.429C788.011 313.323 763.882 288.89 733.811 286.191Z" fill="#A1E2CD"/>
<path d="M790.536 348.374C790.536 382.802 762.525 410.815 728.097 410.815C721.412 410.815 714.976 409.748 708.933 407.795C734.013 399.688 752.21 376.121 752.21 348.375C752.21 320.646 734.034 297.091 708.975 288.97C715.006 287.019 721.424 285.934 728.095 285.934C762.527 285.933 790.536 313.943 790.536 348.374ZM566.184 229.09C559.512 229.09 553.096 230.175 547.063 232.126C572.122 240.247 590.298 263.8 590.298 291.531C590.298 319.278 572.101 342.842 547.021 350.951C553.062 352.904 559.499 353.971 566.184 353.971C600.613 353.971 628.625 325.96 628.625 291.53C628.625 257.099 600.613 229.09 566.184 229.09Z" fill="#87CEB7"/>
<path d="M312.905 674.168C267.569 750.695 168.78 775.979 92.2553 730.643C15.729 685.306 -9.55717 586.519 35.7786 509.992L50.2665 485.541L346.706 617.113L312.905 674.168Z" fill="#6DB2A5"/>
<path d="M346.706 617.114L312.905 674.169C267.569 750.695 168.78 775.979 92.2553 730.644C44.4551 702.325 16.65 653.154 13.5563 601.58L166.939 584.508C176.534 583.439 183.792 575.33 183.792 565.676V544.804L346.706 617.114Z" fill="#61A3A0"/>
<path d="M221.685 478.422C221.685 431.332 259.857 393.159 306.947 393.159C354.037 393.159 392.21 431.332 392.21 478.422V639.474H221.683L221.685 478.422Z" fill="#AFF2D8"/>
<path d="M502.416 453.481L430.105 525.79L498.746 560.111C503.126 562.301 505.895 566.78 505.895 571.679C505.895 578 501.325 583.397 495.09 584.434L368.29 605.204V453.628L492.059 433.361C499.301 432.153 505.895 437.738 505.895 445.08C505.895 448.23 504.643 451.253 502.416 453.481Z" fill="#FFB36E"/>
<path d="M505.895 571.676C505.895 577.997 501.325 583.393 495.09 584.43L367.58 605.318V535.646L430.566 525.329L430.105 525.79L498.746 560.111C503.128 562.301 505.895 566.778 505.895 571.676Z" fill="#FF9F50"/>
<path d="M392.212 478.422V639.474H354.317V478.422C354.317 437.848 325.965 403.917 288.002 395.298C294.1 393.915 300.433 393.159 306.949 393.159C354.037 393.157 392.212 431.332 392.212 478.422Z" fill="#A1E2CD"/>
<path d="M392.212 667.895C392.212 756.842 320.106 828.947 231.159 828.947C142.212 828.947 70.1068 756.842 70.1068 667.895V639.475L392.212 601.58V667.895Z" fill="#87CEB7"/>
<path d="M392.212 601.58V667.895C392.212 756.842 320.106 828.947 231.159 828.947C224.745 828.947 218.431 828.531 212.212 827.801C292.222 818.418 354.317 750.428 354.317 667.895V606.037L392.212 601.58Z" fill="#6DB2A5"/>
<path d="M155.37 753.158C155.12 753.158 154.872 753.158 154.622 753.156C108.22 752.945 70.3177 715.043 70.1086 668.64C70.1068 668.392 70.1068 668.143 70.1068 667.893V639.475L315.33 610.625C306.141 690.843 238.05 753.158 155.37 753.158Z" fill="#C3FFF9"/>
<path d="M331.562 468.947V470.842C331.562 478.693 325.199 485.053 317.352 485.053C309.503 485.053 303.142 478.693 303.142 470.842V468.947C303.142 461.097 309.501 454.737 317.352 454.737C325.202 454.737 331.562 461.097 331.562 468.947ZM620.518 0C466.411 0 341.036 125.371 341.036 279.475V340.794C341.036 348.645 347.396 355.004 355.247 355.004C363.097 355.004 369.457 348.645 369.457 340.794V279.475C369.457 141.043 482.082 28.4221 620.515 28.4221C758.948 28.4221 871.578 141.043 871.578 279.475C871.578 417.906 758.953 530.527 620.518 530.527H581.358C573.507 530.527 567.147 536.887 567.147 544.737C567.147 552.588 573.511 558.947 581.358 558.947H620.518C774.624 558.947 899.998 433.577 899.998 279.475C899.998 125.372 774.624 0 620.518 0ZM695.018 203.685V296.035C704.812 289.647 716.496 285.935 729.038 285.935C763.469 285.935 791.481 313.945 791.481 348.374C791.481 382.806 763.469 410.815 729.038 410.815C694.61 410.815 666.597 382.804 666.597 348.374V217.897H625.688C617.837 217.897 611.478 211.537 611.478 203.687C611.478 195.836 617.841 189.476 625.688 189.476H680.809C688.656 189.475 695.018 195.834 695.018 203.685ZM695.018 348.372C695.018 367.13 710.277 382.393 729.038 382.393C747.8 382.393 763.061 367.131 763.061 348.372C763.061 329.616 747.8 314.353 729.038 314.353C710.277 314.355 695.018 329.616 695.018 348.372ZM567.119 353.971C532.689 353.971 504.676 325.96 504.676 291.53V161.053H463.767C455.917 161.053 449.557 154.693 449.557 146.842C449.557 138.992 455.917 132.632 463.767 132.632H518.888C526.739 132.632 533.099 138.992 533.099 146.842V239.194C542.893 232.806 554.579 229.092 567.121 229.092C601.55 229.092 629.562 257.103 629.562 291.531C629.56 325.962 601.55 353.971 567.119 353.971ZM601.138 291.53C601.138 272.774 585.879 257.511 567.117 257.511C548.358 257.511 533.095 272.772 533.095 291.53C533.095 310.287 548.356 325.55 567.117 325.55C585.877 325.55 601.138 310.291 601.138 291.53ZM513.401 463.53L455.031 521.898L506.041 547.4C515.294 552.029 521.043 561.333 521.043 571.678C521.043 585.004 511.504 596.264 498.359 598.453L407.355 613.621V667.895C407.355 742.876 360.023 807.012 293.667 831.992V871.578H317.352C325.202 871.578 331.562 877.938 331.562 885.788C331.562 893.638 325.199 899.998 317.352 899.998H279.455C271.605 899.998 265.245 893.638 265.245 885.788V840.011C254.508 842.075 243.418 843.156 232.087 843.156C220.756 843.156 209.666 842.073 198.93 840.011V871.578H222.614C230.465 871.578 236.825 877.938 236.825 885.788C236.825 893.638 230.461 899.998 222.614 899.998H184.718C176.867 899.998 170.508 893.638 170.508 885.788V831.99C104.154 807.008 56.8192 742.873 56.8192 667.893V639.475C56.8192 632.269 62.214 626.203 69.37 625.363L208.402 609.006V570.865L56.9757 503.655L48.9284 517.235C31.3644 546.885 24.7691 581.91 30.3589 615.855C32.4753 628.719 36.288 641.246 41.688 653.098C44.9417 660.24 41.79 668.667 34.648 671.922C27.5077 675.174 19.079 672.024 15.8235 664.882C9.38292 650.751 4.83897 635.808 2.31651 620.473C-4.35614 579.946 3.51534 538.138 24.479 502.75L38.9669 478.297C42.6407 472.099 50.3716 469.633 56.9599 472.553L208.408 539.771V478.422C208.408 423.573 253.033 378.949 307.884 378.949C347.138 378.949 381.151 401.799 397.323 434.899L490.663 419.34C498.255 418.08 505.958 420.202 511.82 425.171C517.684 430.137 521.045 437.395 521.045 445.078C521.042 452.048 518.326 458.601 513.401 463.53ZM378.933 478.422C378.933 439.242 347.059 407.37 307.879 407.37C268.699 407.37 236.825 439.242 236.825 478.422V561.312C236.83 561.524 236.83 561.741 236.825 561.952V605.661L314.277 596.547C314.481 596.519 314.692 596.494 314.901 596.475L347.743 592.611C355.505 591.68 362.6 597.268 363.514 605.064C364.431 612.856 358.857 619.921 351.061 620.835L328.728 623.463C313.818 706.259 241.595 767.368 156.296 767.368L155.443 767.366C147.594 767.308 141.28 760.899 141.337 753.049C141.393 745.237 147.747 738.944 155.545 738.944C155.58 738.944 155.617 738.944 155.652 738.944L156.294 738.946C224.787 738.946 283.215 691.931 298.953 626.966L224.442 635.73C224.341 635.745 224.242 635.755 224.14 635.767L85.2413 652.108V667.893C85.2413 748.862 151.117 814.736 232.087 814.736C313.057 814.736 378.933 748.862 378.933 667.893V601.808C378.93 601.641 378.93 601.476 378.933 601.312V478.422ZM488.164 448.569L406.042 462.257C406.903 467.52 407.353 472.918 407.353 478.422V584.803L489.811 571.061L424.684 538.497C420.599 536.454 417.746 532.571 417.013 528.063C416.281 523.554 417.763 518.968 420.992 515.737L488.164 448.569Z" fill="black"/>
</g>
<defs>
<clipPath id="clip0_113_72">
<rect width="900" height="900" fill="white"/>
</clipPath>
</defs>
</svg>
