<svg width="60" height="60" viewBox="0 0 60 60" fill="none" xmlns="http://www.w3.org/2000/svg">
<path fill-rule="evenodd" clip-rule="evenodd" d="M31.6443 56.8831L30 58.3189L28.3557 56.8831C14.5283 44.8093 7.5 34.2669 7.5 25C7.5 11.8767 17.7426 2.5 30 2.5C42.2574 2.5 52.5 11.8767 52.5 25C52.5 34.2669 45.4717 44.8093 31.6443 56.8831ZM12.5 25C12.5 32.1231 18.2665 41.0839 30 51.6585C41.7335 41.0839 47.5 32.1231 47.5 25C47.5 14.7415 39.5897 7.5 30 7.5C20.4103 7.5 12.5 14.7415 12.5 25ZM30 12.5C36.9036 12.5 42.5 18.0964 42.5 25C42.5 31.9036 36.9036 37.5 30 37.5C23.0964 37.5 17.5 31.9036 17.5 25C17.5 18.0964 23.0964 12.5 30 12.5ZM30 17.5C25.8579 17.5 22.5 20.8579 22.5 25C22.5 29.1421 25.8579 32.5 30 32.5C34.1421 32.5 37.5 29.1421 37.5 25C37.5 20.8579 34.1421 17.5 30 17.5Z" fill="black"/>
<path d="M22.5 25C22.5 20.8579 25.8579 17.5 30 17.5C34.1421 17.5 37.5 20.8579 37.5 25C37.5 29.1421 34.1421 32.5 30 32.5C25.8579 32.5 22.5 29.1421 22.5 25Z" fill="#5DB35D"/>
<path fill-rule="evenodd" clip-rule="evenodd" d="M30 51.6585C18.2665 41.0839 12.5 32.1231 12.5 25C12.5 14.7415 20.4103 7.5 30 7.5C39.5897 7.5 47.5 14.7415 47.5 25C47.5 32.1231 41.7335 41.0839 30 51.6585ZM30 12.5C36.9036 12.5 42.5 18.0964 42.5 25C42.5 31.9036 36.9036 37.5 30 37.5C23.0964 37.5 17.5 31.9036 17.5 25C17.5 18.0964 23.0964 12.5 30 12.5Z" fill="#5DB35D"/>
<path fill-rule="evenodd" clip-rule="evenodd" d="M31.6443 56.8831L30 58.3189L28.3557 56.8831C14.5283 44.8093 7.5 34.2669 7.5 25C7.5 11.8767 17.7426 2.5 30 2.5C42.2574 2.5 52.5 11.8767 52.5 25C52.5 34.2669 45.4717 44.8093 31.6443 56.8831ZM12.5 25C12.5 32.1231 18.2665 41.0839 30 51.6585C41.7335 41.0839 47.5 32.1231 47.5 25C47.5 14.7415 39.5897 7.5 30 7.5C20.4103 7.5 12.5 14.7415 12.5 25ZM30 12.5C36.9036 12.5 42.5 18.0964 42.5 25C42.5 31.9036 36.9036 37.5 30 37.5C23.0964 37.5 17.5 31.9036 17.5 25C17.5 18.0964 23.0964 12.5 30 12.5ZM30 17.5C25.8579 17.5 22.5 20.8579 22.5 25C22.5 29.1421 25.8579 32.5 30 32.5C34.1421 32.5 37.5 29.1421 37.5 25C37.5 20.8579 34.1421 17.5 30 17.5Z" fill="black"/>
<path d="M22.5 25C22.5 20.8579 25.8579 17.5 30 17.5C34.1421 17.5 37.5 20.8579 37.5 25C37.5 29.1421 34.1421 32.5 30 32.5C25.8579 32.5 22.5 29.1421 22.5 25Z" fill="white"/>
<circle cx="30" cy="25" r="9" fill="white"/>
<circle cx="30" cy="25" r="12.5" fill="#5DB35D" stroke="#5DB35D"/>
<path d="M31.8271 17.8379C35.4948 14.6083 41.4445 16.5631 42.5205 21.4385L42.5244 21.4561C43.013 23.5331 42.6991 25.7622 41.6729 27.6143L41.458 27.9805H41.457C40.6309 29.3085 39.1729 30.8757 37.4814 32.4424C36.2262 33.6051 34.8824 34.7318 33.6523 35.7139L32.4678 36.6445H32.4668C32.0589 36.9595 31.2671 37.54 30.5625 38.0518C30.3628 38.1968 30.1711 38.3343 30 38.458C29.8289 38.3343 29.6372 38.1968 29.4375 38.0518C29.0852 37.7959 28.7111 37.5228 28.374 37.2744L27.5332 36.6445H27.5322C26.0232 35.4794 24.1923 33.9927 22.5186 32.4424C20.9329 30.9736 19.5521 29.5046 18.7051 28.2324L18.543 27.9805L18.542 27.9795L18.3271 27.6143C17.3692 25.8856 17.0321 23.8285 17.3887 21.873L17.4756 21.4561L17.4795 21.4385C18.5387 16.6394 24.3202 14.6704 27.999 17.6904L28.1729 17.8379L28.1758 17.8408C28.3723 18.0127 28.561 18.2095 28.8018 18.4629V18.4639C28.8966 18.5638 28.9996 18.6721 29.1064 18.7812L30 19.6934L30.8936 18.7812C31.0003 18.6721 31.1033 18.5638 31.1982 18.4639L31.1973 18.4629C31.3176 18.3363 31.4256 18.2244 31.5273 18.1221L31.8242 17.8408L31.8271 17.8379Z" fill="white" stroke="black" stroke-width="2.5"/>
</svg>
