<svg width="60" height="60" viewBox="0 0 60 60" fill="none" xmlns="http://www.w3.org/2000/svg">
<path fill-rule="evenodd" clip-rule="evenodd" d="M31.6443 56.8831L30 58.3189L28.3557 56.8831C14.5283 44.8093 7.5 34.2669 7.5 25C7.5 11.8767 17.7426 2.5 30 2.5C42.2574 2.5 52.5 11.8767 52.5 25C52.5 34.2669 45.4717 44.8093 31.6443 56.8831ZM12.5 25C12.5 32.1231 18.2665 41.0839 30 51.6585C41.7335 41.0839 47.5 32.1231 47.5 25C47.5 14.7415 39.5897 7.5 30 7.5C20.4103 7.5 12.5 14.7415 12.5 25ZM30 12.5C36.9036 12.5 42.5 18.0964 42.5 25C42.5 31.9036 36.9036 37.5 30 37.5C23.0964 37.5 17.5 31.9036 17.5 25C17.5 18.0964 23.0964 12.5 30 12.5ZM30 17.5C25.8579 17.5 22.5 20.8579 22.5 25C22.5 29.1421 25.8579 32.5 30 32.5C34.1421 32.5 37.5 29.1421 37.5 25C37.5 20.8579 34.1421 17.5 30 17.5Z" fill="black"/>
<path d="M22.5 25C22.5 20.8579 25.8579 17.5 30 17.5C34.1421 17.5 37.5 20.8579 37.5 25C37.5 29.1421 34.1421 32.5 30 32.5C25.8579 32.5 22.5 29.1421 22.5 25Z" fill="#5DB35D"/>
<path fill-rule="evenodd" clip-rule="evenodd" d="M30 51.6585C18.2665 41.0839 12.5 32.1231 12.5 25C12.5 14.7415 20.4103 7.5 30 7.5C39.5897 7.5 47.5 14.7415 47.5 25C47.5 32.1231 41.7335 41.0839 30 51.6585ZM30 12.5C36.9036 12.5 42.5 18.0964 42.5 25C42.5 31.9036 36.9036 37.5 30 37.5C23.0964 37.5 17.5 31.9036 17.5 25C17.5 18.0964 23.0964 12.5 30 12.5Z" fill="#5DB35D"/>
<path fill-rule="evenodd" clip-rule="evenodd" d="M31.6443 56.8831L30 58.3189L28.3557 56.8831C14.5283 44.8093 7.5 34.2669 7.5 25C7.5 11.8767 17.7426 2.5 30 2.5C42.2574 2.5 52.5 11.8767 52.5 25C52.5 34.2669 45.4717 44.8093 31.6443 56.8831ZM12.5 25C12.5 32.1231 18.2665 41.0839 30 51.6585C41.7335 41.0839 47.5 32.1231 47.5 25C47.5 14.7415 39.5897 7.5 30 7.5C20.4103 7.5 12.5 14.7415 12.5 25ZM30 12.5C36.9036 12.5 42.5 18.0964 42.5 25C42.5 31.9036 36.9036 37.5 30 37.5C23.0964 37.5 17.5 31.9036 17.5 25C17.5 18.0964 23.0964 12.5 30 12.5ZM30 17.5C25.8579 17.5 22.5 20.8579 22.5 25C22.5 29.1421 25.8579 32.5 30 32.5C34.1421 32.5 37.5 29.1421 37.5 25C37.5 20.8579 34.1421 17.5 30 17.5Z" fill="black"/>
<path d="M22.5 25C22.5 20.8579 25.8579 17.5 30 17.5C34.1421 17.5 37.5 20.8579 37.5 25C37.5 29.1421 34.1421 32.5 30 32.5C25.8579 32.5 22.5 29.1421 22.5 25Z" fill="white"/>
<circle cx="30" cy="25" r="9" fill="white"/>
<circle cx="30" cy="25" r="12.5" fill="#5DB35D" stroke="#5DB35D"/>
<path d="M30.0537 12.3174C30.8149 18.7324 35.7382 23.8323 42.0654 24.8594L42.6826 24.9463L43.1348 25L42.6826 25.0537C36.2677 25.8149 31.1677 30.7382 30.1406 37.0654L30.0537 37.6826L30 38.1348L29.9463 37.6826C29.1851 31.2677 24.2618 26.1677 17.9346 25.1406L17.3174 25.0537L16.8643 25L17.3174 24.9463C23.7324 24.1851 28.8323 19.2618 29.8594 12.9346L29.9463 12.3174L30 11.8643L30.0537 12.3174Z" fill="white" stroke="black" stroke-width="2"/>
</svg>
