<svg width="60" height="60" viewBox="0 0 60 60" fill="none" xmlns="http://www.w3.org/2000/svg">
<path fill-rule="evenodd" clip-rule="evenodd" d="M31.6443 56.8831L30 58.3189L28.3557 56.8831C14.5283 44.8093 7.5 34.2669 7.5 25C7.5 11.8767 17.7426 2.5 30 2.5C42.2574 2.5 52.5 11.8767 52.5 25C52.5 34.2669 45.4717 44.8093 31.6443 56.8831ZM12.5 25C12.5 32.1231 18.2665 41.0839 30 51.6585C41.7335 41.0839 47.5 32.1231 47.5 25C47.5 14.7415 39.5897 7.5 30 7.5C20.4103 7.5 12.5 14.7415 12.5 25ZM30 12.5C36.9036 12.5 42.5 18.0964 42.5 25C42.5 31.9036 36.9036 37.5 30 37.5C23.0964 37.5 17.5 31.9036 17.5 25C17.5 18.0964 23.0964 12.5 30 12.5ZM30 17.5C25.8579 17.5 22.5 20.8579 22.5 25C22.5 29.1421 25.8579 32.5 30 32.5C34.1421 32.5 37.5 29.1421 37.5 25C37.5 20.8579 34.1421 17.5 30 17.5Z" fill="black"/>
<path d="M22.5 25C22.5 20.8579 25.8579 17.5 30 17.5C34.1421 17.5 37.5 20.8579 37.5 25C37.5 29.1421 34.1421 32.5 30 32.5C25.8579 32.5 22.5 29.1421 22.5 25Z" fill="#5DB35D"/>
<path fill-rule="evenodd" clip-rule="evenodd" d="M30 51.6585C18.2665 41.0839 12.5 32.1231 12.5 25C12.5 14.7415 20.4103 7.5 30 7.5C39.5897 7.5 47.5 14.7415 47.5 25C47.5 32.1231 41.7335 41.0839 30 51.6585ZM30 12.5C36.9036 12.5 42.5 18.0964 42.5 25C42.5 31.9036 36.9036 37.5 30 37.5C23.0964 37.5 17.5 31.9036 17.5 25C17.5 18.0964 23.0964 12.5 30 12.5Z" fill="#5DB35D"/>
<path fill-rule="evenodd" clip-rule="evenodd" d="M31.6443 56.8831L30 58.3189L28.3557 56.8831C14.5283 44.8093 7.5 34.2669 7.5 25C7.5 11.8767 17.7426 2.5 30 2.5C42.2574 2.5 52.5 11.8767 52.5 25C52.5 34.2669 45.4717 44.8093 31.6443 56.8831ZM12.5 25C12.5 32.1231 18.2665 41.0839 30 51.6585C41.7335 41.0839 47.5 32.1231 47.5 25C47.5 14.7415 39.5897 7.5 30 7.5C20.4103 7.5 12.5 14.7415 12.5 25ZM30 12.5C36.9036 12.5 42.5 18.0964 42.5 25C42.5 31.9036 36.9036 37.5 30 37.5C23.0964 37.5 17.5 31.9036 17.5 25C17.5 18.0964 23.0964 12.5 30 12.5ZM30 17.5C25.8579 17.5 22.5 20.8579 22.5 25C22.5 29.1421 25.8579 32.5 30 32.5C34.1421 32.5 37.5 29.1421 37.5 25C37.5 20.8579 34.1421 17.5 30 17.5Z" fill="black"/>
<path d="M22.5 25C22.5 20.8579 25.8579 17.5 30 17.5C34.1421 17.5 37.5 20.8579 37.5 25C37.5 29.1421 34.1421 32.5 30 32.5C25.8579 32.5 22.5 29.1421 22.5 25Z" fill="white"/>
<circle cx="30" cy="25" r="12.5" stroke="#5DB35D"/>
<circle cx="30" cy="25" r="9" fill="white"/>
</svg>
