<svg width="60" height="60" viewBox="0 0 60 60" fill="none" xmlns="http://www.w3.org/2000/svg">
<path d="M30 0C42.5 0 52.5 10 52.5 22.5C52.5 32.5 46.5 43 44 47C42.5 49.25 35.5 60 30 60C23 60 7.5 38.25 7.5 22.5C7.5 10 17.5 0 30 0ZM30 10C23 10 17.5 15.5 17.5 22.5C17.5 29.5 23 35 30 35C37 35 42.5 29.5 42.5 22.5C42.5 15.5 37 10 30 10Z" fill="white"/>
<path d="M30 60C23 60 7.5 38.25 7.5 22.5C7.5 10 17.5 0 30 0C42.5 0 52.5 10 52.5 22.5C52.5 32.5 46.5 43 44 47C42.5 49.25 35.5 60 30 60ZM30 5C20.25 5 12.5 12.75 12.5 22.5C12.5 36.5 26.5 54.25 30 55C33.5 54.25 47.5 36.5 47.5 22.5C47.5 12.75 39.75 5 30 5Z" fill="black"/>
<path d="M30 10.5C36.7239 10.5 42 15.7761 42 22.5C42 29.2239 36.7239 34.5 30 34.5C23.2761 34.5 18 29.2239 18 22.5C18 15.7761 23.2761 10.5 30 10.5ZM30 14.5C25.4739 14.5 22 17.9739 22 22.5C22 27.0261 25.4739 30.5 30 30.5C34.5261 30.5 38 27.0261 38 22.5C38 17.9739 34.5261 14.5 30 14.5Z" fill="black" stroke="white"/>
</svg>
