<svg width="60" height="60" viewBox="0 0 60 60" fill="none" xmlns="http://www.w3.org/2000/svg">
<path d="M28.2325 8.23245C28.7013 7.76378 29.3371 7.50049 30 7.50049C30.6629 7.50049 31.2987 7.76378 31.7675 8.23245L41.7675 18.2325C42.2229 18.704 42.4749 19.3355 42.4692 19.991C42.4635 20.6464 42.2005 21.2735 41.737 21.737C41.2735 22.2005 40.6465 22.4634 39.991 22.4691C39.3355 22.4748 38.704 22.2228 38.2325 21.7675L32.5 16.035V40C32.5 40.663 32.2366 41.2989 31.7677 41.7677C31.2989 42.2366 30.663 42.5 30 42.5C29.3369 42.5 28.7011 42.2366 28.2322 41.7677C27.7634 41.2989 27.5 40.663 27.5 40V16.035L21.7675 21.7675C21.296 22.2228 20.6645 22.4748 20.009 22.4691C19.3535 22.4634 18.7265 22.2005 18.2629 21.737C17.7994 21.2735 17.5365 20.6464 17.5308 19.991C17.5251 19.3355 17.7771 18.704 18.2325 18.2325L28.2325 8.23245Z" fill="#DDA15E"/>
<path d="M15 42.5C15 41.837 14.7366 41.2011 14.2678 40.7322C13.7989 40.2634 13.163 40 12.5 40C11.837 40 11.2011 40.2634 10.7322 40.7322C10.2634 41.2011 10 41.837 10 42.5V44C10 48.705 13.795 52.5 18.5 52.5H41.5C46.205 52.5 50 48.705 50 44V42.5C50 41.837 49.7366 41.2011 49.2678 40.7322C48.7989 40.2634 48.163 40 47.5 40C46.837 40 46.2011 40.2634 45.7322 40.7322C45.2634 41.2011 45 41.837 45 42.5V44C45 45.945 43.445 47.5 41.5 47.5H18.5C16.555 47.5 15 45.945 15 44V42.5Z" fill="#DDA15E"/>
</svg>
