<svg width="104" height="104" viewBox="0 0 104 104" fill="none" xmlns="http://www.w3.org/2000/svg">
<g clip-path="url(#clip0_61_1872)">
<path d="M71.7045 0C53.8968 0 39.4089 14.4873 39.4089 32.2948V39.3807C39.4089 40.2878 40.1438 41.0227 41.0509 41.0227C41.9581 41.0227 42.693 40.2878 42.693 39.3807V32.2948C42.693 16.2983 55.7074 3.28433 71.7041 3.28433C87.7008 3.28433 100.716 16.2983 100.716 32.2948C100.716 48.2913 87.7014 61.3054 71.7045 61.3054H67.1793C66.2722 61.3054 65.5372 62.0403 65.5372 62.9474C65.5372 63.8546 66.2726 64.5895 67.1793 64.5895H71.7045C89.5123 64.5895 104 50.1022 104 32.2948C104 14.4875 89.5123 0 71.7045 0Z" fill="black"/>
<path d="M36.672 52.5474C35.7648 52.5474 35.0299 53.2823 35.0299 54.1894V54.4084C35.0299 55.3155 35.7652 56.0505 36.672 56.0505C37.5787 56.0505 38.314 55.3155 38.314 54.4084V54.1894C38.314 53.2823 37.5791 52.5474 36.672 52.5474Z" fill="black"/>
<path d="M72.7496 33.6879C72.7496 29.7095 69.5126 26.4727 65.5342 26.4727C64.0849 26.4727 62.7346 26.9021 61.6028 27.6401V16.9685C61.6028 16.0613 60.8679 15.3264 59.9607 15.3264H53.5911C52.6839 15.3264 51.949 16.0615 51.949 16.9685C51.949 17.8754 52.6839 18.6105 53.5911 18.6105H58.3184V33.6879C58.3184 37.6665 61.5554 40.9033 65.534 40.9033C69.5126 40.9033 72.7494 37.6667 72.7496 33.6879ZM65.5338 37.6192C63.3661 37.6192 61.6024 35.8557 61.6024 33.6879C61.6024 31.5206 63.3659 29.7568 65.5338 29.7568C67.7018 29.7568 69.4651 31.5204 69.4651 33.6879C69.4651 35.8559 67.7016 37.6192 65.5338 37.6192Z" fill="black"/>
<path d="M78.6715 21.8948H72.3019C71.395 21.8948 70.6599 22.6297 70.6599 23.5368C70.6599 24.444 71.395 25.1789 72.3019 25.1789H77.0292V40.2563C77.0292 44.2349 80.2662 47.4717 84.2446 47.4717C88.2235 47.4717 91.4603 44.2349 91.4603 40.2563C91.4603 36.2779 88.2233 33.0411 84.2446 33.0411C82.7954 33.0411 81.4452 33.4703 80.3134 34.2082V23.5366C80.3134 22.6297 79.5783 21.8948 78.6715 21.8948ZM84.2446 36.3254C86.4124 36.3254 88.1761 38.0889 88.1761 40.2565C88.1761 42.424 86.4126 44.1877 84.2446 44.1877C82.0767 44.1877 80.3134 42.4242 80.3134 40.2565C80.3134 38.0889 82.0767 36.3254 84.2446 36.3254Z" fill="black"/>
<path d="M58.476 63.2552L52.5815 60.3083L59.3265 53.5635C59.8956 52.9938 60.2095 52.2367 60.2093 51.4311C60.2093 50.5431 59.8209 49.7046 59.1433 49.1307C58.4659 48.5567 57.5758 48.3113 56.6985 48.457L45.9125 50.2548C44.0438 46.43 40.1133 43.7896 35.5773 43.7896C29.239 43.7896 24.0823 48.9463 24.0823 55.2842V62.3735L6.58163 54.606C5.82032 54.2686 4.92698 54.5535 4.50245 55.2698L2.82829 58.0954C0.406024 62.185 -0.503773 67.0159 0.267289 71.6989C0.558977 73.4708 1.08406 75.1978 1.8281 76.8307C2.20429 77.6562 3.17827 78.02 4.00337 77.6442C4.82887 77.268 5.19287 76.2942 4.81688 75.4689C4.19288 74.0995 3.7523 72.6518 3.50774 71.1653C2.8618 67.2426 3.62393 63.1955 5.65355 59.7692L6.58346 58.2001L24.0817 65.9665V70.3739L8.0157 72.264C7.18877 72.3613 6.56538 73.0621 6.56538 73.8947V77.1788C6.56538 85.8433 12.0351 93.2544 19.7027 96.1412V102.358C19.7027 103.265 20.4376 104 21.3448 104H25.7239C26.6309 104 27.366 103.265 27.366 102.358C27.366 101.451 26.6309 100.716 25.7239 100.716H22.9876V97.068C24.2283 97.3065 25.5098 97.4314 26.8192 97.4314C28.1285 97.4314 29.41 97.3065 30.6507 97.068V102.358C30.6507 103.265 31.3856 104 32.2928 104H36.672C37.5789 104 38.314 103.265 38.314 102.358C38.314 101.451 37.5791 100.716 36.672 100.716H33.9351V96.1414C41.6028 93.2548 47.0724 85.8433 47.0724 77.179V70.9073L57.5883 69.1546C59.1071 68.9017 60.2097 67.6005 60.2097 66.0606C60.2097 64.8652 59.5455 63.7903 58.476 63.2552ZM43.788 69.4853C43.7876 69.5044 43.7876 69.5235 43.788 69.5426V77.179C43.788 86.5354 36.1757 94.1475 26.8192 94.1475C17.4626 94.1475 9.85032 86.5354 9.85032 77.179V75.355L25.9009 73.4667C25.9126 73.4655 25.924 73.4641 25.9358 73.4625L34.5459 72.4497C32.7273 79.9568 25.9756 85.3896 18.0608 85.3896L17.9867 85.3893C17.9824 85.3893 17.9784 85.3893 17.9743 85.3893C17.073 85.3893 16.3389 86.1165 16.3324 87.0192C16.3259 87.9264 17.0556 88.6668 17.9625 88.6737L18.061 88.6739C27.9179 88.6739 36.2637 81.6124 37.9866 72.0448L40.5673 71.7412C41.4681 71.6354 42.1123 70.8192 42.0062 69.9187C41.9004 69.0181 41.0808 68.3721 40.1838 68.4798L36.3888 68.9263C36.3646 68.9285 36.3405 68.9313 36.3167 68.9346L27.3666 69.9878V64.9369C27.3672 64.9123 27.3672 64.8873 27.3666 64.863V55.2846C27.3666 50.7571 31.0499 47.0741 35.5773 47.0741C40.1048 47.0741 43.788 50.7571 43.788 55.2846V69.4853ZM47.0722 67.5773V55.2844C47.0722 54.6486 47.0204 54.0248 46.9206 53.4167L56.4102 51.8349L48.6478 59.5965C48.2747 59.9699 48.1034 60.4996 48.1879 61.0208C48.2726 61.5419 48.6023 61.9906 49.0744 62.2266L56.6001 65.9895L47.0722 67.5773Z" fill="black"/>
</g>
<defs>
<clipPath id="clip0_61_1872">
<rect width="104" height="104" fill="white"/>
</clipPath>
</defs>
</svg>
